<mxfile host="app.diagrams.net" agent="Mozilla/5.0 (Windows NT 10.0; Win64; x64) AppleWebKit/537.36 (KHTML, like Gecko) Chrome/132.0.0.0 Safari/537.36" version="26.0.14">
  <diagram id="C5RBs43oDa-KdzZeNtuy" name="Page-1">
    <mxGraphModel dx="938" dy="469" grid="1" gridSize="10" guides="1" tooltips="1" connect="1" arrows="1" fold="1" page="1" pageScale="1" pageWidth="827" pageHeight="1169" math="0" shadow="0">
      <root>
        <mxCell id="WIyWlLk6GJQsqaUBKTNV-0" />
        <mxCell id="WIyWlLk6GJQsqaUBKTNV-1" parent="WIyWlLk6GJQsqaUBKTNV-0" />
        <mxCell id="I5qVX4zO3Urcbht4urbO-4" value="" style="edgeStyle=orthogonalEdgeStyle;rounded=0;orthogonalLoop=1;jettySize=auto;html=1;" edge="1" parent="WIyWlLk6GJQsqaUBKTNV-1" source="I5qVX4zO3Urcbht4urbO-0" target="I5qVX4zO3Urcbht4urbO-2">
          <mxGeometry relative="1" as="geometry" />
        </mxCell>
        <mxCell id="I5qVX4zO3Urcbht4urbO-0" value="Inicio" style="ellipse;whiteSpace=wrap;html=1;" vertex="1" parent="WIyWlLk6GJQsqaUBKTNV-1">
          <mxGeometry x="330" y="80" width="120" height="100" as="geometry" />
        </mxCell>
        <mxCell id="I5qVX4zO3Urcbht4urbO-6" value="" style="edgeStyle=orthogonalEdgeStyle;rounded=0;orthogonalLoop=1;jettySize=auto;html=1;" edge="1" parent="WIyWlLk6GJQsqaUBKTNV-1" source="I5qVX4zO3Urcbht4urbO-2" target="I5qVX4zO3Urcbht4urbO-5">
          <mxGeometry relative="1" as="geometry" />
        </mxCell>
        <mxCell id="I5qVX4zO3Urcbht4urbO-2" value="&lt;font style=&quot;font-size: 14px;&quot;&gt;Mostras mensaje:&lt;/font&gt;&lt;div&gt;&lt;font style=&quot;font-size: 14px;&quot;&gt;&quot;Por favor, ingrese una palabra&quot;&lt;/font&gt;&lt;/div&gt;" style="shape=parallelogram;perimeter=parallelogramPerimeter;whiteSpace=wrap;html=1;fixedSize=1;fillColor=#ffe6cc;strokeColor=#d79b00;" vertex="1" parent="WIyWlLk6GJQsqaUBKTNV-1">
          <mxGeometry x="270" y="210" width="240" height="90" as="geometry" />
        </mxCell>
        <mxCell id="I5qVX4zO3Urcbht4urbO-8" value="" style="edgeStyle=orthogonalEdgeStyle;rounded=0;orthogonalLoop=1;jettySize=auto;html=1;" edge="1" parent="WIyWlLk6GJQsqaUBKTNV-1" source="I5qVX4zO3Urcbht4urbO-5" target="I5qVX4zO3Urcbht4urbO-7">
          <mxGeometry relative="1" as="geometry" />
        </mxCell>
        <mxCell id="I5qVX4zO3Urcbht4urbO-5" value="&lt;font style=&quot;font-size: 14px;&quot;&gt;Definir la variable cantidad_letras y&lt;/font&gt;&lt;div&gt;&lt;font style=&quot;font-size: 14px;&quot;&gt;asignarle la longitud de palabra_ingresada&lt;/font&gt;&lt;/div&gt;" style="rounded=1;whiteSpace=wrap;html=1;fillColor=#dae8fc;strokeColor=#6c8ebf;" vertex="1" parent="WIyWlLk6GJQsqaUBKTNV-1">
          <mxGeometry x="250" y="350" width="280" height="100" as="geometry" />
        </mxCell>
        <mxCell id="I5qVX4zO3Urcbht4urbO-10" value="" style="edgeStyle=orthogonalEdgeStyle;rounded=0;orthogonalLoop=1;jettySize=auto;html=1;" edge="1" parent="WIyWlLk6GJQsqaUBKTNV-1" source="I5qVX4zO3Urcbht4urbO-7" target="I5qVX4zO3Urcbht4urbO-9">
          <mxGeometry relative="1" as="geometry" />
        </mxCell>
        <mxCell id="I5qVX4zO3Urcbht4urbO-7" value="&lt;font style=&quot;font-size: 14px;&quot;&gt;Mostrar mensaje: &quot; La palabra ingresada tiene&quot;, cantidad_letras, &quot;letras.&quot;&lt;/font&gt;" style="shape=parallelogram;perimeter=parallelogramPerimeter;whiteSpace=wrap;html=1;fixedSize=1;rounded=1;fillColor=#ffe6cc;strokeColor=#d79b00;" vertex="1" parent="WIyWlLk6GJQsqaUBKTNV-1">
          <mxGeometry x="210" y="495" width="360" height="90" as="geometry" />
        </mxCell>
        <mxCell id="I5qVX4zO3Urcbht4urbO-9" value="Fin" style="ellipse;whiteSpace=wrap;html=1;rounded=1;" vertex="1" parent="WIyWlLk6GJQsqaUBKTNV-1">
          <mxGeometry x="320" y="630" width="140" height="135" as="geometry" />
        </mxCell>
      </root>
    </mxGraphModel>
  </diagram>
</mxfile>
